<svg xmlns="http://www.w3.org/2000/svg" viewBox="0 0 192 192" width="192" height="192">
  <defs>
    <linearGradient id="bgGrad" x1="0%" y1="0%" x2="100%" y2="100%">
      <stop offset="0%" style="stop-color:#1a5f1a"/>
      <stop offset="100%" style="stop-color:#0d3d0d"/>
    </linearGradient>
    <linearGradient id="shieldGrad" x1="0%" y1="0%" x2="100%" y2="100%">
      <stop offset="0%" style="stop-color:#22c55e"/>
      <stop offset="100%" style="stop-color:#0ea5e9"/>
    </linearGradient>
  </defs>
  <!-- Background -->
  <rect x="8" y="8" width="176" height="176" rx="32" fill="url(#bgGrad)"/>
  <!-- Shield outline -->
  <path d="M96 40c25 10 50 15 50 15s0 45-20 70c-15 20-30 27-30 27s-15-7-30-27c-20-25-20-70-20-70s25-5 50-15z" 
        fill="none" stroke="url(#shieldGrad)" stroke-width="6" stroke-linejoin="round"/>
  <!-- Checkmark -->
  <path d="M72 100l16 16 32-32" fill="none" stroke="#22c55e" stroke-width="8" stroke-linecap="round" stroke-linejoin="round"/>
  <!-- Leaf -->
  <path d="M38 48c0 0 10 2 16 12s4 20 4 20s-10-2-16-12s-4-20-4-20z" fill="#4ade80"/>
  <!-- EHS Text -->
  <text x="96" y="150" text-anchor="middle" font-family="Arial, sans-serif" font-weight="bold" font-size="36" fill="white">EHS</text>
</svg>
